<svg width="1600" height="1000" viewBox="0 0 1600 1000" fill="none" xmlns="http://www.w3.org/2000/svg">
  <rect width="1600" height="1000" fill="url(#paint0_linear_1_2)"/>
  <circle cx="1332" cy="196" r="152" fill="url(#paint1_radial_1_2)" opacity="0.55"/>
  <circle cx="296" cy="260" r="118" fill="url(#paint2_radial_1_2)" opacity="0.25"/>
  <path d="M0 639C137 591 233 570 402 588C571 606 670 719 824 730C982 741 1104 653 1277 644C1401 637 1504 673 1600 722V1000H0V639Z" fill="url(#paint3_linear_1_2)" opacity="0.84"/>
  <path d="M0 720C172 667 267 664 430 693C608 726 700 826 883 840C1044 852 1155 780 1308 770C1419 763 1513 789 1600 835V1000H0V720Z" fill="url(#paint4_linear_1_2)" opacity="0.88"/>
  <path d="M0 822C165 794 289 800 436 831C600 866 719 947 915 955C1064 960 1184 924 1354 922C1456 921 1532 932 1600 954V1000H0V822Z" fill="url(#paint5_linear_1_2)"/>
  <g opacity="0.22">
    <path d="M1121 365L1266 421" stroke="#F8FAFC" stroke-width="2"/>
    <path d="M1222 312L1222 469" stroke="#F8FAFC" stroke-width="2"/>
    <path d="M420 387L493 429" stroke="#F8FAFC" stroke-width="2"/>
    <path d="M456 351L456 466" stroke="#F8FAFC" stroke-width="2"/>
  </g>
  <defs>
    <linearGradient id="paint0_linear_1_2" x1="144" y1="74" x2="1309" y2="919" gradientUnits="userSpaceOnUse">
      <stop stop-color="#0D2238"/>
      <stop offset="0.58" stop-color="#153655"/>
      <stop offset="1" stop-color="#0A1728"/>
    </linearGradient>
    <radialGradient id="paint1_radial_1_2" cx="0" cy="0" r="1" gradientUnits="userSpaceOnUse" gradientTransform="translate(1332 196) rotate(90) scale(152)">
      <stop stop-color="#F8FAFC"/>
      <stop offset="1" stop-color="#F8FAFC" stop-opacity="0"/>
    </radialGradient>
    <radialGradient id="paint2_radial_1_2" cx="0" cy="0" r="1" gradientUnits="userSpaceOnUse" gradientTransform="translate(296 260) rotate(90) scale(118)">
      <stop stop-color="#E2E8F0"/>
      <stop offset="1" stop-color="#E2E8F0" stop-opacity="0"/>
    </radialGradient>
    <linearGradient id="paint3_linear_1_2" x1="800" y1="588" x2="800" y2="1000" gradientUnits="userSpaceOnUse">
      <stop stop-color="#1D4E73" stop-opacity="0.22"/>
      <stop offset="1" stop-color="#081423"/>
    </linearGradient>
    <linearGradient id="paint4_linear_1_2" x1="800" y1="688" x2="800" y2="1000" gradientUnits="userSpaceOnUse">
      <stop stop-color="#205B84" stop-opacity="0.4"/>
      <stop offset="1" stop-color="#081423"/>
    </linearGradient>
    <linearGradient id="paint5_linear_1_2" x1="800" y1="822" x2="800" y2="1000" gradientUnits="userSpaceOnUse">
      <stop stop-color="#2C6B95" stop-opacity="0.42"/>
      <stop offset="1" stop-color="#081423"/>
    </linearGradient>
  </defs>
</svg>
